<mxfile host="app.diagrams.net" agent="Mozilla/5.0 (Windows NT 10.0; Win64; x64) AppleWebKit/537.36 (KHTML, like Gecko) Chrome/136.0.0.0 Safari/537.36" version="27.0.5">
  <diagram name="Page-1" id="ucKlXISjQW_0JLScTgaO">
    <mxGraphModel dx="1042" dy="562" grid="1" gridSize="10" guides="1" tooltips="1" connect="1" arrows="1" fold="1" page="1" pageScale="1" pageWidth="827" pageHeight="1169" math="0" shadow="0">
      <root>
        <mxCell id="0" />
        <mxCell id="1" parent="0" />
        <mxCell id="GVYLULnPU4JRBzl4qoNL-72" value="" style="endArrow=classic;html=1;rounded=0;" edge="1" parent="1">
          <mxGeometry width="50" height="50" relative="1" as="geometry">
            <mxPoint x="623.5" y="520" as="sourcePoint" />
            <mxPoint x="623.5" y="580" as="targetPoint" />
          </mxGeometry>
        </mxCell>
        <mxCell id="ivda8mUk_vOju0kUa4W2-1" value="" style="sketch=0;outlineConnect=0;fontColor=#232F3E;gradientColor=none;fillColor=#232F3D;strokeColor=none;dashed=0;verticalLabelPosition=bottom;verticalAlign=top;align=center;html=1;fontSize=12;fontStyle=0;aspect=fixed;pointerEvents=1;shape=mxgraph.aws4.source_code;" vertex="1" parent="1">
          <mxGeometry x="55.5" y="220" width="57" height="78" as="geometry" />
        </mxCell>
        <mxCell id="GVYLULnPU4JRBzl4qoNL-1" value="Send alert notification from web&amp;nbsp;&lt;div&gt;application&lt;/div&gt;" style="text;html=1;align=center;verticalAlign=middle;resizable=0;points=[];autosize=1;strokeColor=none;fillColor=none;" vertex="1" parent="1">
          <mxGeometry x="10" y="160" width="190" height="40" as="geometry" />
        </mxCell>
        <mxCell id="GVYLULnPU4JRBzl4qoNL-2" value="" style="outlineConnect=0;dashed=0;verticalLabelPosition=bottom;verticalAlign=top;align=center;html=1;shape=mxgraph.aws3.cognito;fillColor=#AD688B;gradientColor=none;" vertex="1" parent="1">
          <mxGeometry x="363.75" y="20" width="76.5" height="93" as="geometry" />
        </mxCell>
        <mxCell id="GVYLULnPU4JRBzl4qoNL-3" value="" style="outlineConnect=0;dashed=0;verticalLabelPosition=bottom;verticalAlign=top;align=center;html=1;shape=mxgraph.aws3.lambda_function;fillColor=#F58534;gradientColor=none;" vertex="1" parent="1">
          <mxGeometry x="367.5" y="228.25" width="69" height="72" as="geometry" />
        </mxCell>
        <mxCell id="GVYLULnPU4JRBzl4qoNL-4" value="" style="outlineConnect=0;dashed=0;verticalLabelPosition=bottom;verticalAlign=top;align=center;html=1;shape=mxgraph.aws3.iam;fillColor=#759C3E;gradientColor=none;" vertex="1" parent="1">
          <mxGeometry x="220" y="380" width="42" height="81" as="geometry" />
        </mxCell>
        <mxCell id="GVYLULnPU4JRBzl4qoNL-5" value="" style="outlineConnect=0;dashed=0;verticalLabelPosition=bottom;verticalAlign=top;align=center;html=1;shape=mxgraph.aws3.dynamo_db;fillColor=#2E73B8;gradientColor=none;" vertex="1" parent="1">
          <mxGeometry x="364.5" y="468" width="72" height="81" as="geometry" />
        </mxCell>
        <mxCell id="GVYLULnPU4JRBzl4qoNL-6" value="" style="outlineConnect=0;dashed=0;verticalLabelPosition=bottom;verticalAlign=top;align=center;html=1;shape=mxgraph.aws3.sns;fillColor=#D9A741;gradientColor=none;" vertex="1" parent="1">
          <mxGeometry x="600" y="223.75" width="76.5" height="76.5" as="geometry" />
        </mxCell>
        <mxCell id="GVYLULnPU4JRBzl4qoNL-7" value="" style="outlineConnect=0;dashed=0;verticalLabelPosition=bottom;verticalAlign=top;align=center;html=1;shape=mxgraph.aws3.sqs;fillColor=#D9A741;gradientColor=none;" vertex="1" parent="1">
          <mxGeometry x="589" y="403" width="70" height="77" as="geometry" />
        </mxCell>
        <mxCell id="GVYLULnPU4JRBzl4qoNL-8" value="" style="outlineConnect=0;dashed=0;verticalLabelPosition=bottom;verticalAlign=top;align=center;html=1;shape=mxgraph.aws3.sqs;fillColor=#D9A741;gradientColor=none;" vertex="1" parent="1">
          <mxGeometry x="465" y="400" width="70" height="83" as="geometry" />
        </mxCell>
        <mxCell id="GVYLULnPU4JRBzl4qoNL-9" value="" style="outlineConnect=0;dashed=0;verticalLabelPosition=bottom;verticalAlign=top;align=center;html=1;shape=mxgraph.aws3.sqs;fillColor=#D9A741;gradientColor=none;" vertex="1" parent="1">
          <mxGeometry x="710" y="400" width="69" height="77" as="geometry" />
        </mxCell>
        <mxCell id="GVYLULnPU4JRBzl4qoNL-10" value="" style="outlineConnect=0;dashed=0;verticalLabelPosition=bottom;verticalAlign=top;align=center;html=1;shape=mxgraph.aws3.lambda_function;fillColor=#F58534;gradientColor=none;" vertex="1" parent="1">
          <mxGeometry x="710" y="585" width="69" height="72" as="geometry" />
        </mxCell>
        <mxCell id="GVYLULnPU4JRBzl4qoNL-11" value="" style="outlineConnect=0;dashed=0;verticalLabelPosition=bottom;verticalAlign=top;align=center;html=1;shape=mxgraph.aws3.lambda_function;fillColor=#F58534;gradientColor=none;" vertex="1" parent="1">
          <mxGeometry x="585.5" y="580" width="69" height="72" as="geometry" />
        </mxCell>
        <mxCell id="GVYLULnPU4JRBzl4qoNL-12" value="" style="outlineConnect=0;dashed=0;verticalLabelPosition=bottom;verticalAlign=top;align=center;html=1;shape=mxgraph.aws3.lambda_function;fillColor=#F58534;gradientColor=none;" vertex="1" parent="1">
          <mxGeometry x="466" y="580" width="69" height="72" as="geometry" />
        </mxCell>
        <mxCell id="GVYLULnPU4JRBzl4qoNL-16" value="Email Provider" style="ellipse;whiteSpace=wrap;html=1;aspect=fixed;" vertex="1" parent="1">
          <mxGeometry x="454.5" y="760" width="75.5" height="75.5" as="geometry" />
        </mxCell>
        <mxCell id="GVYLULnPU4JRBzl4qoNL-15" value="" style="outlineConnect=0;dashed=0;verticalLabelPosition=bottom;verticalAlign=top;align=center;html=1;shape=mxgraph.aws3.email;fillColor=#D9A741;gradientColor=none;" vertex="1" parent="1">
          <mxGeometry x="480" y="811.5" width="81" height="61.5" as="geometry" />
        </mxCell>
        <mxCell id="GVYLULnPU4JRBzl4qoNL-17" value="SMS &lt;br&gt;Provider" style="ellipse;whiteSpace=wrap;html=1;aspect=fixed;" vertex="1" parent="1">
          <mxGeometry x="584" y="760" width="80" height="80" as="geometry" />
        </mxCell>
        <mxCell id="GVYLULnPU4JRBzl4qoNL-13" value="" style="outlineConnect=0;dashed=0;verticalLabelPosition=bottom;verticalAlign=top;align=center;html=1;shape=mxgraph.aws3.mobile_client;fillColor=#D2D3D3;gradientColor=none;" vertex="1" parent="1">
          <mxGeometry x="630" y="820" width="40.5" height="63" as="geometry" />
        </mxCell>
        <mxCell id="GVYLULnPU4JRBzl4qoNL-33" value="" style="image;aspect=fixed;html=1;points=[];align=center;fontSize=12;image=img/lib/azure2/identity/User_Settings.svg;" vertex="1" parent="1">
          <mxGeometry x="50" y="579.9999999999999" width="68" height="56.92" as="geometry" />
        </mxCell>
        <mxCell id="GVYLULnPU4JRBzl4qoNL-34" value="" style="endArrow=classic;html=1;rounded=0;" edge="1" parent="1" source="ivda8mUk_vOju0kUa4W2-1">
          <mxGeometry relative="1" as="geometry">
            <mxPoint x="181" y="258.5" as="sourcePoint" />
            <mxPoint x="360" y="260" as="targetPoint" />
          </mxGeometry>
        </mxCell>
        <mxCell id="GVYLULnPU4JRBzl4qoNL-35" value="Label" style="edgeLabel;resizable=0;html=1;;align=center;verticalAlign=middle;" connectable="0" vertex="1" parent="GVYLULnPU4JRBzl4qoNL-34">
          <mxGeometry relative="1" as="geometry" />
        </mxCell>
        <mxCell id="GVYLULnPU4JRBzl4qoNL-36" value="1. Post/Send&amp;nbsp;" style="edgeLabel;html=1;align=center;verticalAlign=middle;resizable=0;points=[];" vertex="1" connectable="0" parent="GVYLULnPU4JRBzl4qoNL-34">
          <mxGeometry x="0.0017" y="3" relative="1" as="geometry">
            <mxPoint as="offset" />
          </mxGeometry>
        </mxCell>
        <mxCell id="GVYLULnPU4JRBzl4qoNL-41" value="Cognito containing your&lt;br&gt;&amp;nbsp;user&#39;s email,number,..." style="text;html=1;align=center;verticalAlign=middle;resizable=0;points=[];autosize=1;strokeColor=none;fillColor=none;textWrap=true;" vertex="1" parent="1">
          <mxGeometry x="200" y="46.5" width="150" height="40" as="geometry" />
        </mxCell>
        <mxCell id="GVYLULnPU4JRBzl4qoNL-42" value="" style="endArrow=classic;html=1;rounded=0;entryX=0;entryY=0.48;entryDx=0;entryDy=0;entryPerimeter=0;" edge="1" parent="1" target="GVYLULnPU4JRBzl4qoNL-6">
          <mxGeometry relative="1" as="geometry">
            <mxPoint x="440" y="260" as="sourcePoint" />
            <mxPoint x="590" y="120" as="targetPoint" />
          </mxGeometry>
        </mxCell>
        <mxCell id="GVYLULnPU4JRBzl4qoNL-43" value="Label" style="edgeLabel;resizable=0;html=1;;align=center;verticalAlign=middle;" connectable="0" vertex="1" parent="GVYLULnPU4JRBzl4qoNL-42">
          <mxGeometry relative="1" as="geometry" />
        </mxCell>
        <mxCell id="GVYLULnPU4JRBzl4qoNL-44" value="&amp;nbsp;4. Publish to fan out&amp;nbsp;" style="edgeLabel;html=1;align=center;verticalAlign=middle;resizable=0;points=[];" vertex="1" connectable="0" parent="GVYLULnPU4JRBzl4qoNL-42">
          <mxGeometry x="0.0017" y="3" relative="1" as="geometry">
            <mxPoint as="offset" />
          </mxGeometry>
        </mxCell>
        <mxCell id="GVYLULnPU4JRBzl4qoNL-46" value="/Send lambda function &lt;br&gt;with function url" style="text;html=1;align=center;verticalAlign=middle;resizable=0;points=[];autosize=1;strokeColor=none;fillColor=none;" vertex="1" parent="1">
          <mxGeometry x="414" y="300.25" width="140" height="40" as="geometry" />
        </mxCell>
        <mxCell id="GVYLULnPU4JRBzl4qoNL-47" value="" style="endArrow=classic;startArrow=classic;html=1;rounded=0;entryX=0.5;entryY=1;entryDx=0;entryDy=0;entryPerimeter=0;" edge="1" parent="1" source="GVYLULnPU4JRBzl4qoNL-3" target="GVYLULnPU4JRBzl4qoNL-2">
          <mxGeometry width="50" height="50" relative="1" as="geometry">
            <mxPoint x="373.25" y="210" as="sourcePoint" />
            <mxPoint x="423.25" y="160" as="targetPoint" />
            <Array as="points" />
          </mxGeometry>
        </mxCell>
        <mxCell id="GVYLULnPU4JRBzl4qoNL-48" value="3. Get User Attributes" style="edgeLabel;html=1;align=center;verticalAlign=middle;resizable=0;points=[];" vertex="1" connectable="0" parent="GVYLULnPU4JRBzl4qoNL-47">
          <mxGeometry x="-0.0938" y="-1" relative="1" as="geometry">
            <mxPoint as="offset" />
          </mxGeometry>
        </mxCell>
        <mxCell id="GVYLULnPU4JRBzl4qoNL-50" value="" style="endArrow=classic;startArrow=classic;html=1;rounded=0;entryX=0.5;entryY=1;entryDx=0;entryDy=0;entryPerimeter=0;exitX=0.5;exitY=0;exitDx=0;exitDy=0;exitPerimeter=0;" edge="1" parent="1" source="GVYLULnPU4JRBzl4qoNL-5" target="GVYLULnPU4JRBzl4qoNL-3">
          <mxGeometry width="50" height="50" relative="1" as="geometry">
            <mxPoint x="390" y="460" as="sourcePoint" />
            <mxPoint x="440" y="410" as="targetPoint" />
          </mxGeometry>
        </mxCell>
        <mxCell id="GVYLULnPU4JRBzl4qoNL-51" value="2.&amp;nbsp;&lt;span style=&quot;background-color: light-dark(#ffffff, var(--ge-dark-color, #121212)); color: light-dark(rgb(0, 0, 0), rgb(255, 255, 255));&quot;&gt;Match notification preferences&lt;/span&gt;" style="edgeLabel;html=1;align=center;verticalAlign=middle;resizable=0;points=[];" vertex="1" connectable="0" parent="GVYLULnPU4JRBzl4qoNL-50">
          <mxGeometry x="-0.0463" y="1" relative="1" as="geometry">
            <mxPoint as="offset" />
          </mxGeometry>
        </mxCell>
        <mxCell id="GVYLULnPU4JRBzl4qoNL-53" value="" style="endArrow=block;dashed=1;endFill=0;endSize=12;html=1;rounded=0;entryX=0.5;entryY=0;entryDx=0;entryDy=0;entryPerimeter=0;" edge="1" parent="1" target="GVYLULnPU4JRBzl4qoNL-4">
          <mxGeometry width="160" relative="1" as="geometry">
            <mxPoint x="241" y="270" as="sourcePoint" />
            <mxPoint x="310" y="319.75" as="targetPoint" />
          </mxGeometry>
        </mxCell>
        <mxCell id="GVYLULnPU4JRBzl4qoNL-56" value="Authorization" style="edgeLabel;html=1;align=center;verticalAlign=middle;resizable=0;points=[];" vertex="1" connectable="0" parent="GVYLULnPU4JRBzl4qoNL-53">
          <mxGeometry x="-0.1167" y="-1" relative="1" as="geometry">
            <mxPoint as="offset" />
          </mxGeometry>
        </mxCell>
        <mxCell id="GVYLULnPU4JRBzl4qoNL-57" value="AWS SNS&amp;nbsp;&lt;br&gt;with filters" style="text;html=1;align=center;verticalAlign=middle;resizable=0;points=[];autosize=1;strokeColor=none;fillColor=none;" vertex="1" parent="1">
          <mxGeometry x="676.5" y="239" width="80" height="40" as="geometry" />
        </mxCell>
        <mxCell id="GVYLULnPU4JRBzl4qoNL-59" value="" style="edgeStyle=segmentEdgeStyle;endArrow=classic;html=1;curved=0;rounded=0;endSize=8;startSize=8;exitX=0.976;exitY=0.608;exitDx=0;exitDy=0;exitPerimeter=0;" edge="1" parent="1" source="GVYLULnPU4JRBzl4qoNL-33" target="GVYLULnPU4JRBzl4qoNL-84">
          <mxGeometry width="50" height="50" relative="1" as="geometry">
            <mxPoint x="140" y="620" as="sourcePoint" />
            <mxPoint x="400" y="590" as="targetPoint" />
          </mxGeometry>
        </mxCell>
        <mxCell id="GVYLULnPU4JRBzl4qoNL-60" value="&amp;nbsp;Put item in dynamoDb&amp;nbsp;" style="edgeLabel;html=1;align=center;verticalAlign=middle;resizable=0;points=[];" vertex="1" connectable="0" parent="GVYLULnPU4JRBzl4qoNL-59">
          <mxGeometry x="-0.3279" y="-1" relative="1" as="geometry">
            <mxPoint as="offset" />
          </mxGeometry>
        </mxCell>
        <mxCell id="GVYLULnPU4JRBzl4qoNL-61" value="" style="endArrow=block;dashed=1;endFill=0;endSize=12;html=1;rounded=0;entryX=0.5;entryY=1;entryDx=0;entryDy=0;entryPerimeter=0;" edge="1" parent="1" target="GVYLULnPU4JRBzl4qoNL-4">
          <mxGeometry width="160" relative="1" as="geometry">
            <mxPoint x="241" y="600" as="sourcePoint" />
            <mxPoint x="321" y="540" as="targetPoint" />
          </mxGeometry>
        </mxCell>
        <mxCell id="GVYLULnPU4JRBzl4qoNL-62" value="Authorization" style="edgeLabel;html=1;align=center;verticalAlign=middle;resizable=0;points=[];" vertex="1" connectable="0" parent="GVYLULnPU4JRBzl4qoNL-61">
          <mxGeometry x="-0.036" y="2" relative="1" as="geometry">
            <mxPoint as="offset" />
          </mxGeometry>
        </mxCell>
        <mxCell id="GVYLULnPU4JRBzl4qoNL-63" value="IAM&lt;br&gt;Policies" style="text;html=1;align=center;verticalAlign=middle;resizable=0;points=[];autosize=1;strokeColor=none;fillColor=none;" vertex="1" parent="1">
          <mxGeometry x="150" y="393" width="60" height="40" as="geometry" />
        </mxCell>
        <mxCell id="GVYLULnPU4JRBzl4qoNL-64" value="Email Sender Lambda" style="text;html=1;align=center;verticalAlign=middle;resizable=0;points=[];autosize=1;strokeColor=none;fillColor=none;" vertex="1" parent="1">
          <mxGeometry x="430" y="652" width="140" height="30" as="geometry" />
        </mxCell>
        <mxCell id="GVYLULnPU4JRBzl4qoNL-65" value="SMS Sender Lambda" style="text;html=1;align=center;verticalAlign=middle;resizable=0;points=[];autosize=1;strokeColor=none;fillColor=none;" vertex="1" parent="1">
          <mxGeometry x="554" y="652" width="140" height="30" as="geometry" />
        </mxCell>
        <mxCell id="GVYLULnPU4JRBzl4qoNL-66" value="Notification Sender &lt;br&gt;Lambda" style="text;html=1;align=center;verticalAlign=middle;resizable=0;points=[];autosize=1;strokeColor=none;fillColor=none;" vertex="1" parent="1">
          <mxGeometry x="689" y="652" width="120" height="40" as="geometry" />
        </mxCell>
        <mxCell id="GVYLULnPU4JRBzl4qoNL-67" value="" style="endArrow=classic;html=1;rounded=0;entryX=0.5;entryY=0;entryDx=0;entryDy=0;exitX=0.44;exitY=1.073;exitDx=0;exitDy=0;exitPerimeter=0;" edge="1" parent="1" source="GVYLULnPU4JRBzl4qoNL-64" target="GVYLULnPU4JRBzl4qoNL-16">
          <mxGeometry width="50" height="50" relative="1" as="geometry">
            <mxPoint x="390" y="760" as="sourcePoint" />
            <mxPoint x="440" y="710" as="targetPoint" />
          </mxGeometry>
        </mxCell>
        <mxCell id="GVYLULnPU4JRBzl4qoNL-68" value="" style="endArrow=classic;html=1;rounded=0;entryX=0.5;entryY=0;entryDx=0;entryDy=0;exitX=0.44;exitY=1.073;exitDx=0;exitDy=0;exitPerimeter=0;" edge="1" parent="1">
          <mxGeometry width="50" height="50" relative="1" as="geometry">
            <mxPoint x="623.5" y="684" as="sourcePoint" />
            <mxPoint x="623.5" y="760" as="targetPoint" />
          </mxGeometry>
        </mxCell>
        <mxCell id="GVYLULnPU4JRBzl4qoNL-69" value="" style="endArrow=classic;html=1;rounded=0;" edge="1" parent="1">
          <mxGeometry width="50" height="50" relative="1" as="geometry">
            <mxPoint x="500" y="520" as="sourcePoint" />
            <mxPoint x="500" y="580" as="targetPoint" />
          </mxGeometry>
        </mxCell>
        <mxCell id="GVYLULnPU4JRBzl4qoNL-87" value="6. Process Delivery Jobs" style="edgeLabel;html=1;align=center;verticalAlign=middle;resizable=0;points=[];" vertex="1" connectable="0" parent="GVYLULnPU4JRBzl4qoNL-69">
          <mxGeometry x="-0.2667" y="1" relative="1" as="geometry">
            <mxPoint x="69" y="1" as="offset" />
          </mxGeometry>
        </mxCell>
        <mxCell id="GVYLULnPU4JRBzl4qoNL-70" value="Email Job SQS" style="text;html=1;align=center;verticalAlign=middle;resizable=0;points=[];autosize=1;strokeColor=none;fillColor=none;" vertex="1" parent="1">
          <mxGeometry x="450" y="478" width="100" height="30" as="geometry" />
        </mxCell>
        <mxCell id="GVYLULnPU4JRBzl4qoNL-71" value="SMS Job SQS" style="text;html=1;align=center;verticalAlign=middle;resizable=0;points=[];autosize=1;strokeColor=none;fillColor=none;" vertex="1" parent="1">
          <mxGeometry x="570" y="477" width="100" height="30" as="geometry" />
        </mxCell>
        <mxCell id="GVYLULnPU4JRBzl4qoNL-74" value="" style="endArrow=none;html=1;rounded=0;" edge="1" parent="1">
          <mxGeometry width="50" height="50" relative="1" as="geometry">
            <mxPoint x="636" y="360" as="sourcePoint" />
            <mxPoint x="635.75" y="298" as="targetPoint" />
          </mxGeometry>
        </mxCell>
        <mxCell id="GVYLULnPU4JRBzl4qoNL-75" value="" style="edgeStyle=segmentEdgeStyle;endArrow=classic;html=1;curved=0;rounded=0;endSize=8;startSize=8;entryX=0.5;entryY=0;entryDx=0;entryDy=0;entryPerimeter=0;" edge="1" parent="1" target="GVYLULnPU4JRBzl4qoNL-8">
          <mxGeometry width="50" height="50" relative="1" as="geometry">
            <mxPoint x="640" y="360" as="sourcePoint" />
            <mxPoint x="604" y="320" as="targetPoint" />
          </mxGeometry>
        </mxCell>
        <mxCell id="GVYLULnPU4JRBzl4qoNL-76" value="" style="edgeStyle=segmentEdgeStyle;endArrow=classic;html=1;curved=0;rounded=0;endSize=8;startSize=8;entryX=0.5;entryY=0;entryDx=0;entryDy=0;entryPerimeter=0;" edge="1" parent="1" target="GVYLULnPU4JRBzl4qoNL-9">
          <mxGeometry width="50" height="50" relative="1" as="geometry">
            <mxPoint x="630" y="360" as="sourcePoint" />
            <mxPoint x="769.5" y="310" as="targetPoint" />
          </mxGeometry>
        </mxCell>
        <mxCell id="GVYLULnPU4JRBzl4qoNL-77" value="" style="endArrow=classic;html=1;rounded=0;" edge="1" parent="1">
          <mxGeometry width="50" height="50" relative="1" as="geometry">
            <mxPoint x="620" y="360" as="sourcePoint" />
            <mxPoint x="620" y="400" as="targetPoint" />
          </mxGeometry>
        </mxCell>
        <mxCell id="GVYLULnPU4JRBzl4qoNL-78" value="5. Fan Out to Job Processors" style="text;html=1;align=center;verticalAlign=middle;resizable=0;points=[];autosize=1;strokeColor=none;fillColor=none;" vertex="1" parent="1">
          <mxGeometry x="630" y="310.25" width="180" height="30" as="geometry" />
        </mxCell>
        <mxCell id="GVYLULnPU4JRBzl4qoNL-79" value="Notification Job SQS" style="text;html=1;align=center;verticalAlign=middle;resizable=0;points=[];autosize=1;strokeColor=none;fillColor=none;" vertex="1" parent="1">
          <mxGeometry x="675" y="478" width="130" height="30" as="geometry" />
        </mxCell>
        <mxCell id="GVYLULnPU4JRBzl4qoNL-80" value="" style="endArrow=classic;html=1;rounded=0;" edge="1" parent="1">
          <mxGeometry width="50" height="50" relative="1" as="geometry">
            <mxPoint x="744" y="520" as="sourcePoint" />
            <mxPoint x="744" y="580" as="targetPoint" />
          </mxGeometry>
        </mxCell>
        <mxCell id="GVYLULnPU4JRBzl4qoNL-81" value="" style="endArrow=classic;html=1;rounded=0;entryX=0.5;entryY=0;entryDx=0;entryDy=0;exitX=0.44;exitY=1.073;exitDx=0;exitDy=0;exitPerimeter=0;" edge="1" parent="1">
          <mxGeometry width="50" height="50" relative="1" as="geometry">
            <mxPoint x="748.5" y="694" as="sourcePoint" />
            <mxPoint x="748.5" y="770" as="targetPoint" />
          </mxGeometry>
        </mxCell>
        <mxCell id="GVYLULnPU4JRBzl4qoNL-82" value="" style="outlineConnect=0;dashed=0;verticalLabelPosition=bottom;verticalAlign=top;align=center;html=1;shape=mxgraph.aws3.mobile_client;fillColor=#D2D3D3;gradientColor=none;" vertex="1" parent="1">
          <mxGeometry x="728.75" y="777" width="40.5" height="63" as="geometry" />
        </mxCell>
        <mxCell id="GVYLULnPU4JRBzl4qoNL-84" value="User Preferences&amp;nbsp;&lt;div&gt;DynamoDb&lt;/div&gt;" style="text;html=1;align=center;verticalAlign=middle;resizable=0;points=[];autosize=1;strokeColor=none;fillColor=none;" vertex="1" parent="1">
          <mxGeometry x="340.5" y="543" width="120" height="40" as="geometry" />
        </mxCell>
      </root>
    </mxGraphModel>
  </diagram>
</mxfile>
